%TF.GenerationSoftware,KiCad,Pcbnew,10.0.6*%
%TF.CreationDate,2026-09-21T18:59:57-07:00*%
%TF.ProjectId,2-channel-daq,322d6368-616e-46e6-956c-2d6461712e6b,rev?*%
%TF.SameCoordinates,Original*%
%TF.FileFunction,Copper,L2,Bot*%
%TF.FilePolarity,Positive*%
%FSLAX46Y46*%
G04 Gerber Fmt 4.6, Leading zero omitted, Abs format (unit mm)*
G04 Created by KiCad (PCBNEW 10.0.6) date 2026-09-21 18:59:57*
%MOMM*%
%LPD*%
G01*
G04 APERTURE LIST*
G04 Aperture macros list*
%AMRoundRect*
0 Rectangle with rounded corners*
0 $1 Rounding radius*
0 $2 $3 $4 $5 $6 $7 $8 $9 X,Y pos of 4 corners*
0 Add a 4 corners polygon primitive as box body*
4,1,4,$2,$3,$4,$5,$6,$7,$8,$9,$2,$3,0*
0 Add four circle primitives for the rounded corners*
1,1,$1+$1,$2,$3*
1,1,$1+$1,$4,$5*
1,1,$1+$1,$6,$7*
1,1,$1+$1,$8,$9*
0 Add four rect primitives between the rounded corners*
20,1,$1+$1,$2,$3,$4,$5,0*
20,1,$1+$1,$4,$5,$6,$7,0*
20,1,$1+$1,$6,$7,$8,$9,0*
20,1,$1+$1,$8,$9,$2,$3,0*%
G04 Aperture macros list end*
%TA.AperFunction,ComponentPad*%
%ADD10C,1.600000*%
%TD*%
%TA.AperFunction,ComponentPad*%
%ADD11R,1.700000X1.700000*%
%TD*%
%TA.AperFunction,ComponentPad*%
%ADD12C,1.700000*%
%TD*%
%TA.AperFunction,ComponentPad*%
%ADD13RoundRect,0.250000X-0.550000X-0.550000X0.550000X-0.550000X0.550000X0.550000X-0.550000X0.550000X0*%
%TD*%
%TA.AperFunction,ComponentPad*%
%ADD14R,1.200000X1.200000*%
%TD*%
%TA.AperFunction,ComponentPad*%
%ADD15C,1.200000*%
%TD*%
G04 APERTURE END LIST*
D10*
%TO.P,R8,2*%
%TO.N,Net-(D2-K)*%
X64420000Y-45000000D03*
%TO.P,R8,1*%
%TO.N,Net-(R7-Pad2)*%
X74580000Y-45000000D03*
%TD*%
%TO.P,R7,2*%
%TO.N,Net-(R7-Pad2)*%
X77420000Y-45000000D03*
%TO.P,R7,1*%
%TO.N,Net-(J2-Pin_1)*%
X87580000Y-45000000D03*
%TD*%
%TO.P,R6,1*%
%TO.N,Net-(C1-Pad2)*%
X21420000Y-39500000D03*
%TO.P,R6,2*%
%TO.N,Net-(U2-PA0)*%
X31580000Y-39500000D03*
%TD*%
%TO.P,Rg1,2*%
%TO.N,GND*%
X29420000Y-44500000D03*
%TO.P,Rg1,1*%
%TO.N,Net-(U1B--)*%
X39580000Y-44500000D03*
%TD*%
%TO.P,Rf1,1*%
%TO.N,Net-(C1-Pad2)*%
X53080000Y-44500000D03*
%TO.P,Rf1,2*%
%TO.N,Net-(U1B--)*%
X42920000Y-44500000D03*
%TD*%
D11*
%TO.P,J1,1,Pin_1_1*%
%TO.N,Net-(J1-Pin_1)*%
X23580000Y-24460000D03*
D12*
%TO.P,J1,2,Pin_2_2*%
%TO.N,GND*%
X23580000Y-27000000D03*
%TD*%
D10*
%TO.P,R1,1*%
%TO.N,Net-(J1-Pin_1)*%
X27000000Y-24500000D03*
%TO.P,R1,2*%
%TO.N,Net-(R1-Pad2)*%
X37160000Y-24500000D03*
%TD*%
%TO.P,R2,1*%
%TO.N,Net-(R1-Pad2)*%
X40000000Y-24500000D03*
%TO.P,R2,2*%
%TO.N,Net-(D1-K)*%
X50160000Y-24500000D03*
%TD*%
%TO.P,R5,1*%
%TO.N,Net-(C1-Pad1)*%
X38920000Y-38000000D03*
%TO.P,R5,2*%
%TO.N,Net-(U1B-+)*%
X49080000Y-38000000D03*
%TD*%
%TO.P,R4,2*%
%TO.N,Net-(C1-Pad1)*%
X32080000Y-32000000D03*
%TO.P,R4,1*%
%TO.N,Net-(U1A--)*%
X21920000Y-32000000D03*
%TD*%
%TO.P,R3,2*%
%TO.N,GND*%
X35420000Y-32000000D03*
%TO.P,R3,1*%
%TO.N,Net-(D1-K)*%
X45580000Y-32000000D03*
%TD*%
D13*
%TO.P,U1,1*%
%TO.N,Net-(U1A--)*%
X53500000Y-24460000D03*
D10*
%TO.P,U1,2,-_2*%
X53500000Y-27000000D03*
%TO.P,U1,3,+_3*%
%TO.N,Net-(D1-K)*%
X53500000Y-29540000D03*
%TO.P,U1,4,V+_4*%
%TO.N,+3.3V*%
X53500000Y-32080000D03*
%TO.P,U1,5,+_5*%
%TO.N,Net-(U1B-+)*%
X53500000Y-34620000D03*
%TO.P,U1,6,-_6*%
%TO.N,Net-(U1B--)*%
X53500000Y-37160000D03*
%TO.P,U1,7*%
%TO.N,Net-(C1-Pad2)*%
X53500000Y-39700000D03*
%TO.P,U1,8*%
%TO.N,Net-(U1C--)*%
X61120000Y-39700000D03*
%TO.P,U1,9,-_9*%
X61120000Y-37160000D03*
%TO.P,U1,10,+_10*%
%TO.N,Net-(D2-K)*%
X61120000Y-34620000D03*
%TO.P,U1,11,V-_11*%
%TO.N,GND*%
X61120000Y-32080000D03*
%TO.P,U1,12,+_12*%
%TO.N,Net-(U1D-+)*%
X61120000Y-29540000D03*
%TO.P,U1,13,-_13*%
%TO.N,Net-(U1D--)*%
X61120000Y-27000000D03*
%TO.P,U1,14*%
%TO.N,Net-(C4-Pad2)*%
X61120000Y-24460000D03*
%TD*%
D12*
%TO.P,J4,4,Pin_4_4*%
%TO.N,/UART_RX*%
X47500000Y-58540000D03*
%TO.P,J4,3,Pin_3_3*%
%TO.N,/UART_TX*%
X47500000Y-56000000D03*
%TO.P,J4,2,Pin_2_2*%
%TO.N,GND*%
X47500000Y-53460000D03*
D11*
%TO.P,J4,1,Pin_1_1*%
%TO.N,+3.3V*%
X47500000Y-50920000D03*
%TD*%
D10*
%TO.P,R12,2*%
%TO.N,Net-(U2-PA1)*%
X82340000Y-29000000D03*
%TO.P,R12,1*%
%TO.N,Net-(C4-Pad2)*%
X92500000Y-29000000D03*
%TD*%
%TO.P,Rg2,2*%
%TO.N,GND*%
X88080000Y-24000000D03*
%TO.P,Rg2,1*%
%TO.N,Net-(U1D--)*%
X77920000Y-24000000D03*
%TD*%
%TO.P,R11,2*%
%TO.N,Net-(U1D-+)*%
X64340000Y-30000000D03*
%TO.P,R11,1*%
%TO.N,Net-(C4-Pad1)*%
X74500000Y-30000000D03*
%TD*%
%TO.P,Rf2,2*%
%TO.N,Net-(U1D--)*%
X74580000Y-24000000D03*
%TO.P,Rf2,1*%
%TO.N,Net-(C4-Pad2)*%
X64420000Y-24000000D03*
%TD*%
%TO.P,R9,2*%
%TO.N,GND*%
X75080000Y-37500000D03*
%TO.P,R9,1*%
%TO.N,Net-(D2-K)*%
X64920000Y-37500000D03*
%TD*%
%TO.P,R13,2*%
%TO.N,/NRST*%
X55340000Y-65000000D03*
%TO.P,R13,1*%
%TO.N,+3.3V*%
X65500000Y-65000000D03*
%TD*%
%TO.P,R10,2*%
%TO.N,Net-(C4-Pad1)*%
X77920000Y-37500000D03*
%TO.P,R10,1*%
%TO.N,Net-(U1C--)*%
X88080000Y-37500000D03*
%TD*%
D14*
%TO.P,SW1,1,1_1*%
%TO.N,/NRST*%
X51500000Y-65500000D03*
D15*
%TO.P,SW1,2,2_2*%
%TO.N,GND*%
X48960000Y-65500000D03*
%TO.P,SW1,3*%
%TO.N,N/C*%
X46420000Y-65500000D03*
%TO.P,SW1,4*%
X51500000Y-62960000D03*
%TO.P,SW1,5*%
X48960000Y-62960000D03*
%TO.P,SW1,6*%
X46420000Y-62960000D03*
%TD*%
D11*
%TO.P,J3,1,Pin_1_1*%
%TO.N,+3.3V*%
X69500000Y-65620000D03*
D12*
%TO.P,J3,2,Pin_2_2*%
%TO.N,GND*%
X69500000Y-63080000D03*
%TO.P,J3,3,Pin_3_3*%
%TO.N,/SWDIO*%
X69500000Y-60540000D03*
%TO.P,J3,4,Pin_4_4*%
%TO.N,/SWCLK*%
X69500000Y-58000000D03*
%TO.P,J3,5,Pin_5_5*%
%TO.N,/NRST*%
X69500000Y-55460000D03*
%TD*%
D11*
%TO.P,J2,1,Pin_1_1*%
%TO.N,Net-(J2-Pin_1)*%
X91500000Y-44775000D03*
D12*
%TO.P,J2,2,Pin_2_2*%
%TO.N,GND*%
X91500000Y-42235000D03*
%TD*%
M02*
