M48
; DRILL file KiCad 10.0.6 date 2026-09-21T19:00:02
; FORMAT={-:-/ absolute / metric / decimal}
; #@! TF.CreationDate,2026-09-21T19:00:02-07:00
; #@! TF.GenerationSoftware,Kicad,Pcbnew,10.0.6
; #@! TF.FileFunction,Plated,1,2,PTH
FMAT,2
METRIC
; #@! TA.AperFunction,Plated,PTH,ComponentDrill
T1C0.600
; #@! TA.AperFunction,Plated,PTH,ComponentDrill
T2C0.800
; #@! TA.AperFunction,Plated,PTH,ComponentDrill
T3C1.000
%
G90
G05
T1
X46.42Y-62.96
X46.42Y-65.5
X48.96Y-62.96
X48.96Y-65.5
X51.5Y-62.96
X51.5Y-65.5
T2
X21.42Y-39.5
X21.92Y-32.0
X27.0Y-24.5
X29.42Y-44.5
X31.58Y-39.5
X32.08Y-32.0
X35.42Y-32.0
X37.16Y-24.5
X38.92Y-38.0
X39.58Y-44.5
X40.0Y-24.5
X42.92Y-44.5
X45.58Y-32.0
X49.08Y-38.0
X50.16Y-24.5
X53.08Y-44.5
X53.5Y-24.46
X53.5Y-27.0
X53.5Y-29.54
X53.5Y-32.08
X53.5Y-34.62
X53.5Y-37.16
X53.5Y-39.7
X55.34Y-65.0
X61.12Y-24.46
X61.12Y-27.0
X61.12Y-29.54
X61.12Y-32.08
X61.12Y-34.62
X61.12Y-37.16
X61.12Y-39.7
X64.34Y-30.0
X64.42Y-24.0
X64.42Y-45.0
X64.92Y-37.5
X65.5Y-65.0
X74.5Y-30.0
X74.58Y-24.0
X74.58Y-45.0
X75.08Y-37.5
X77.42Y-45.0
X77.92Y-24.0
X77.92Y-37.5
X82.34Y-29.0
X87.58Y-45.0
X88.08Y-24.0
X88.08Y-37.5
X92.5Y-29.0
T3
X23.58Y-24.46
X23.58Y-27.0
X47.5Y-50.92
X47.5Y-53.46
X47.5Y-56.0
X47.5Y-58.54
X69.5Y-55.46
X69.5Y-58.0
X69.5Y-60.54
X69.5Y-63.08
X69.5Y-65.62
X91.5Y-42.235
X91.5Y-44.775
M30
