%TF.GenerationSoftware,KiCad,Pcbnew,10.0.6*%
%TF.CreationDate,2026-09-21T18:59:57-07:00*%
%TF.ProjectId,2-channel-daq,322d6368-616e-46e6-956c-2d6461712e6b,rev?*%
%TF.SameCoordinates,Original*%
%TF.FileFunction,Soldermask,Top*%
%TF.FilePolarity,Negative*%
%FSLAX46Y46*%
G04 Gerber Fmt 4.6, Leading zero omitted, Abs format (unit mm)*
G04 Created by KiCad (PCBNEW 10.0.6) date 2026-09-21 18:59:57*
%MOMM*%
%LPD*%
G01*
G04 APERTURE LIST*
G04 Aperture macros list*
%AMRoundRect*
0 Rectangle with rounded corners*
0 $1 Rounding radius*
0 $2 $3 $4 $5 $6 $7 $8 $9 X,Y pos of 4 corners*
0 Add a 4 corners polygon primitive as box body*
4,1,4,$2,$3,$4,$5,$6,$7,$8,$9,$2,$3,0*
0 Add four circle primitives for the rounded corners*
1,1,$1+$1,$2,$3*
1,1,$1+$1,$4,$5*
1,1,$1+$1,$6,$7*
1,1,$1+$1,$8,$9*
0 Add four rect primitives between the rounded corners*
20,1,$1+$1,$2,$3,$4,$5,0*
20,1,$1+$1,$4,$5,$6,$7,0*
20,1,$1+$1,$6,$7,$8,$9,0*
20,1,$1+$1,$8,$9,$2,$3,0*%
G04 Aperture macros list end*
%ADD10RoundRect,0.250000X0.250000X0.475000X-0.250000X0.475000X-0.250000X-0.475000X0.250000X-0.475000X0*%
%ADD11C,1.600000*%
%ADD12R,1.700000X1.700000*%
%ADD13C,1.700000*%
%ADD14RoundRect,0.250000X-0.250000X-0.475000X0.250000X-0.475000X0.250000X0.475000X-0.250000X0.475000X0*%
%ADD15RoundRect,0.225000X0.225000X0.375000X-0.225000X0.375000X-0.225000X-0.375000X0.225000X-0.375000X0*%
%ADD16RoundRect,0.250000X-0.550000X-0.550000X0.550000X-0.550000X0.550000X0.550000X-0.550000X0.550000X0*%
%ADD17RoundRect,0.125000X0.625000X0.125000X-0.625000X0.125000X-0.625000X-0.125000X0.625000X-0.125000X0*%
%ADD18RoundRect,0.125000X0.125000X0.625000X-0.125000X0.625000X-0.125000X-0.625000X0.125000X-0.625000X0*%
%ADD19R,1.200000X1.200000*%
%ADD20C,1.200000*%
%ADD21RoundRect,0.225000X-0.225000X-0.375000X0.225000X-0.375000X0.225000X0.375000X-0.225000X0.375000X0*%
G04 APERTURE END LIST*
D10*
%TO.C,C6*%
X79450000Y-28000000D03*
X77550000Y-28000000D03*
%TD*%
D11*
%TO.C,R8*%
X64420000Y-45000000D03*
X74580000Y-45000000D03*
%TD*%
%TO.C,R7*%
X77420000Y-45000000D03*
X87580000Y-45000000D03*
%TD*%
%TO.C,R6*%
X21420000Y-39500000D03*
X31580000Y-39500000D03*
%TD*%
%TO.C,Rg1*%
X29420000Y-44500000D03*
X39580000Y-44500000D03*
%TD*%
%TO.C,Rf1*%
X53080000Y-44500000D03*
X42920000Y-44500000D03*
%TD*%
D12*
%TO.C,J1*%
X23580000Y-24460000D03*
D13*
X23580000Y-27000000D03*
%TD*%
D11*
%TO.C,R1*%
X27000000Y-24500000D03*
X37160000Y-24500000D03*
%TD*%
%TO.C,R2*%
X40000000Y-24500000D03*
X50160000Y-24500000D03*
%TD*%
%TO.C,R5*%
X38920000Y-38000000D03*
X49080000Y-38000000D03*
%TD*%
D14*
%TO.C,C3*%
X34000000Y-40000000D03*
X35900000Y-40000000D03*
%TD*%
D10*
%TO.C,C2*%
X35050000Y-35500000D03*
X36950000Y-35500000D03*
%TD*%
D14*
%TO.C,C1*%
X29100000Y-35500000D03*
X31000000Y-35500000D03*
%TD*%
D11*
%TO.C,R4*%
X32080000Y-32000000D03*
X21920000Y-32000000D03*
%TD*%
D15*
%TO.C,D1*%
X38500000Y-28000000D03*
X35200000Y-28000000D03*
%TD*%
D11*
%TO.C,R3*%
X35420000Y-32000000D03*
X45580000Y-32000000D03*
%TD*%
D16*
%TO.C,U1*%
X53500000Y-24460000D03*
D11*
X53500000Y-27000000D03*
X53500000Y-29540000D03*
X53500000Y-32080000D03*
X53500000Y-34620000D03*
X53500000Y-37160000D03*
X53500000Y-39700000D03*
X61120000Y-39700000D03*
X61120000Y-37160000D03*
X61120000Y-34620000D03*
X61120000Y-32080000D03*
X61120000Y-29540000D03*
X61120000Y-27000000D03*
X61120000Y-24460000D03*
%TD*%
D13*
%TO.C,J4*%
X47500000Y-58540000D03*
X47500000Y-56000000D03*
X47500000Y-53460000D03*
D12*
X47500000Y-50920000D03*
%TD*%
D11*
%TO.C,R12*%
X82340000Y-29000000D03*
X92500000Y-29000000D03*
%TD*%
%TO.C,Rg2*%
X88080000Y-24000000D03*
X77920000Y-24000000D03*
%TD*%
%TO.C,R11*%
X64340000Y-30000000D03*
X74500000Y-30000000D03*
%TD*%
%TO.C,Rf2*%
X74580000Y-24000000D03*
X64420000Y-24000000D03*
%TD*%
%TO.C,R9*%
X75080000Y-37500000D03*
X64920000Y-37500000D03*
%TD*%
%TO.C,R13*%
X55340000Y-65000000D03*
X65500000Y-65000000D03*
%TD*%
%TO.C,R10*%
X77920000Y-37500000D03*
X88080000Y-37500000D03*
%TD*%
D17*
%TO.C,U2*%
X61675000Y-57800000D03*
X61675000Y-57000000D03*
X61675000Y-56200000D03*
X61675000Y-55400000D03*
X61675000Y-54600000D03*
X61675000Y-53800000D03*
X61675000Y-53000000D03*
X61675000Y-52200000D03*
D18*
X60300000Y-50825000D03*
X59500000Y-50825000D03*
X58700000Y-50825000D03*
X57900000Y-50825000D03*
X57100000Y-50825000D03*
X56300000Y-50825000D03*
X55500000Y-50825000D03*
X54700000Y-50825000D03*
D17*
X53325000Y-52200000D03*
X53325000Y-53000000D03*
X53325000Y-53800000D03*
X53325000Y-54600000D03*
X53325000Y-55400000D03*
X53325000Y-56200000D03*
X53325000Y-57000000D03*
X53325000Y-57800000D03*
D18*
X54700000Y-59175000D03*
X55500000Y-59175000D03*
X56300000Y-59175000D03*
X57100000Y-59175000D03*
X57900000Y-59175000D03*
X58700000Y-59175000D03*
X59500000Y-59175000D03*
X60300000Y-59175000D03*
%TD*%
D19*
%TO.C,SW1*%
X51500000Y-65500000D03*
D20*
X48960000Y-65500000D03*
X46420000Y-65500000D03*
X51500000Y-62960000D03*
X48960000Y-62960000D03*
X46420000Y-62960000D03*
%TD*%
D12*
%TO.C,J3*%
X69500000Y-65620000D03*
D13*
X69500000Y-63080000D03*
X69500000Y-60540000D03*
X69500000Y-58000000D03*
X69500000Y-55460000D03*
%TD*%
D12*
%TO.C,J2*%
X91500000Y-44775000D03*
D13*
X91500000Y-42235000D03*
%TD*%
D21*
%TO.C,D2*%
X72350000Y-41000000D03*
X75650000Y-41000000D03*
%TD*%
D14*
%TO.C,C8*%
X40600000Y-55500000D03*
X42500000Y-55500000D03*
%TD*%
D10*
%TO.C,C7*%
X42500000Y-51000000D03*
X40600000Y-51000000D03*
%TD*%
D14*
%TO.C,C5*%
X71050000Y-34000000D03*
X72950000Y-34000000D03*
%TD*%
D10*
%TO.C,C4*%
X78500000Y-34000000D03*
X76600000Y-34000000D03*
%TD*%
M02*
